<svg width="17" height="18" viewBox="0 0 17 18" fill="none" xmlns="http://www.w3.org/2000/svg">
<path d="M11.0802 0C13.9341 0 16.3253 1.94502 16.9552 4.55911C16.9969 4.73191 16.8366 4.88372 16.6559 4.88372H6.57001C5.58933 4.88372 4.79433 5.66462 4.79433 6.62791V11.3023C4.79433 12.2656 5.58933 13.0465 6.57001 13.0465H11.552L9.02595 9.96043C8.65227 9.50389 8.98314 8.82559 9.5795 8.82558H15.5795C16.3683 8.82559 17.006 9.45686 17 10.2317L16.9755 13.3605L16.9731 13.3604C16.9721 13.3673 16.9708 13.3743 16.9692 13.3813C16.3615 16.0254 13.9557 18 11.0802 18H6.0373C2.70299 18 8.01014e-08 15.3449 0 12.0698V5.93023C0 2.65506 2.70299 7.97841e-08 6.0373 0H11.0802Z" fill="white"/>
</svg>
